<svg xmlns="http://www.w3.org/2000/svg" viewBox="0 0 1138.76 761.01" id="product-launch"><g data-name="Layer 2"><g><g data-name="project launch"><g><path fill="#2e186a" d="M802.18 32.34a3 3 0 1 0 6 0V20.67h11.67a3 3 0 0 0 0-6h-11.67V3a3 3 0 0 0-6 0v11.67h-11.67a3 3 0 1 0 0 6h11.67ZM313.4 110.51h-11.67V98.84a3 3 0 0 0-6 0v11.67h-11.67a3 3 0 0 0 0 6h11.67v11.67a3 3 0 0 0 6 0v-11.67h11.67a3 3 0 0 0 0-6ZM258.49 248.45h-11.67v-11.67a3 3 0 0 0-6 0v11.67h-11.67a3 3 0 0 0 0 6h11.67v11.67a3 3 0 0 0 6 0v-11.67h11.67a3 3 0 0 0 0-6ZM100.22 186.59H88.55v-11.67a3 3 0 0 0-6 0v11.67H70.88a3 3 0 0 0 0 6h11.67v11.68a3 3 0 0 0 6 0v-11.68h11.67a3 3 0 0 0 0-6ZM180.06 367.53h-11.67v-11.67a3 3 0 0 0-6 0v11.67h-11.67a3 3 0 0 0 0 6h11.67v11.67a3 3 0 0 0 6 0v-11.67h11.67a3 3 0 0 0 0-6ZM32.34 297.46H20.67v-11.67a3 3 0 0 0-6 0v11.67H3a3 3 0 0 0 0 6h11.67v11.67a3 3 0 0 0 6 0v-11.67h11.67a3 3 0 0 0 0-6ZM957.22 290.36h-11.67v-11.67a3 3 0 0 0-6 0v11.67h-11.68a3 3 0 0 0 0 6h11.68V308a3 3 0 0 0 6 0v-11.64h11.67a3 3 0 0 0 0-6ZM997.54 422.88h-11.67v-11.67a3 3 0 1 0-6 0v11.67H968.2a3 3 0 0 0 0 6h11.67v11.68a3 3 0 1 0 6 0v-11.68h11.67a3 3 0 0 0 0-6ZM1111.37 288.43a3 3 0 1 0 6 0v-11.67H1129a3 3 0 0 0 0-6h-11.67v-11.67a3 3 0 1 0-6 0v11.67h-11.63a3 3 0 0 0 0 6h11.67ZM829.76 486.05h-11.67v-11.67a3 3 0 0 0-6 0v11.67h-11.67a3 3 0 0 0 0 6h11.67v11.68a3 3 0 1 0 6 0v-11.68h11.67a3 3 0 0 0 0-6ZM1135.76 486.05h-11.67v-11.67a3 3 0 1 0-6 0v11.67h-11.67a3 3 0 0 0 0 6h11.67v11.68a3 3 0 0 0 6 0v-11.68h11.67a3 3 0 0 0 0-6Z"></path></g><g><path fill="#fe7624" d="m295.34 431.36-65 72.8a4.88 4.88 0 0 0 5.48 7.68l50.3-7.72s-68 79.63-48.09 114.49 131.57 7.59 131.57 7.59l-30.75 42.49a4.89 4.89 0 0 0 5.71 7.52L435.68 645s143-69.72 46.26-192.42-186.6-21.22-186.6-21.22Z"></path><g data-name="lines and circles"><circle cx="131.06" cy="522.37" r="16.16" fill="#5d21d1"></circle><path fill="none" stroke="#2e186a" stroke-linecap="round" stroke-linejoin="round" stroke-width="6" d="m378.5 435.59-231.6 83.59"></path><circle cx="150.5" cy="676.73" r="16.16" fill="#5d21d1"></circle><path fill="none" stroke="#2e186a" stroke-linecap="round" stroke-linejoin="round" stroke-width="6" d="M417.85 478.74 165.39 667.26"></path><circle cx="313.27" cy="744.85" r="16.16" fill="#5d21d1"></circle><path fill="none" stroke="#2e186a" stroke-linecap="round" stroke-linejoin="round" stroke-width="6" d="M457.36 525.76 320.2 730.25M916.24 86.24l42.26-29.17"></path><circle cx="973.57" cy="45.05" r="16.16" fill="#5d21d1"></circle></g><path fill="#5d21d1" d="M725.32 124.83a336.89 336.89 0 0 0-130.6 62.36L402.33 337.1a21.51 21.51 0 0 0-2.7 31.44l8.47 9.32-67.5 13.88 169.85 196.53 28.85-65.9 12.16 13.4a21.52 21.52 0 0 0 30.22 1.62l185.77-165a336.87 336.87 0 0 0 86.43-120.34l74-174.45Z" data-name="rocket"></path><g data-name="white lines"><path fill="#fff" d="M699.15 272.07a3 3 0 0 1-2.3-1.07l-23.68-28.27a3 3 0 1 1 4.6-3.85l21.75 26L718.41 249l-31.87-38a3 3 0 1 1 4.59-3.86l33.8 40.36a3 3 0 0 1-.37 4.22l-23.48 19.67a3 3 0 0 1-1.93.68ZM541.09 333.66a3 3 0 0 1-2.29-1.06l-41.1-48.33a3 3 0 0 1 3.08-4.84l5.69 1.57a3 3 0 0 1 2.1 3.68 2.93 2.93 0 0 1-1.21 1.69l34.08 40.08 18.91-15.84-13.17-15.72a3 3 0 0 1 4.6-3.85l15.09 18a3 3 0 0 1-.37 4.23L543 333a3 3 0 0 1-1.91.66ZM524.39 390h-.27a3 3 0 0 1-2-1.06l-37.63-44.92a3 3 0 0 1 .38-4.23l23.48-19.67a3 3 0 0 1 4.23.38l37.62 44.91a3 3 0 0 1-.37 4.23l-23.49 19.67a3 3 0 0 1-1.95.69ZM491 342.5l33.77 40.31L543.64 367l-33.77-40.32ZM754.54 272h-.22a3 3 0 0 1-2.05-1L714 226.6a3 3 0 0 1 .31-4.24l23.17-20a3 3 0 0 1 4.24.31L780 247a3.06 3.06 0 0 1 .73 2.18 3 3 0 0 1-1 2.06l-23.17 20a3 3 0 0 1-2.02.76Zm-34.09-47 34.39 39.79 18.64-16.11-34.39-39.79ZM488 319.19a3 3 0 0 1-1.46-5.62c4.62-2.57 10.05-6.6 9.68-11.15-.56-6.86-13.27-13.64-16.63-14.85a3 3 0 0 1-1.95-3.74 3 3 0 0 1 3.78-2c.19.06 19.48 7.64 20.75 19.8.66 6.32-3.61 12.1-12.71 17.16a3 3 0 0 1-1.46.4Z"></path><path fill="#fff" d="M558.09 294.5a178.51 178.51 0 0 1-62.31-11.1 3 3 0 0 1 2.12-5.62c62.18 23.38 146.57 9.91 180.16-53.09.27-.51 26.35-51.37 14.37-85.26a3 3 0 0 1 5.66-2C711 174 683.64 227 683.36 227.51c-24.61 46.16-75.05 66.99-125.27 66.99ZM465.69 424.69a10.06 10.06 0 0 1-1.54-.11 10.67 10.67 0 1 1 1.54.11Zm0-15.4a4.72 4.72 0 1 0 .66 0 3.67 3.67 0 0 0-.68 0ZM429.31 381.23a10.06 10.06 0 0 1-1.54-.11 10.7 10.7 0 1 1 12.11-9.07 10.7 10.7 0 0 1-10.57 9.18Zm0-15.4a4.71 4.71 0 0 0-4.65 4 4.7 4.7 0 0 0 9.31 1.33 4.7 4.7 0 0 0-4-5.32 5 5 0 0 0-.69-.01ZM509.62 471a11.19 11.19 0 0 1-1.52-.1 10.71 10.71 0 1 1 12.11-9.08 10.71 10.71 0 0 1-10.59 9.18Zm0-15.4a4.72 4.72 0 0 0-4.65 4 4.71 4.71 0 0 0 4 5.32 4.72 4.72 0 0 0 5.32-4 4.69 4.69 0 0 0-4-5.32 5 5 0 0 0-.68.01Zm7.63 5.79ZM554.05 517.15a9.84 9.84 0 0 1-1.53-.11 10.7 10.7 0 1 1 12.1-9.08 10.69 10.69 0 0 1-10.57 9.19Zm0-15.4a4.7 4.7 0 1 0 2.82 8.46 4.65 4.65 0 0 0 1.84-3.1 4.72 4.72 0 0 0-4-5.32 5.12 5.12 0 0 0-.71-.04Zm7.62 5.79ZM652.91 428.88a3 3 0 0 1-2.24-1l-27.07-30.23a3 3 0 0 1 2-5l24.19-2.14c5.16-29.29 29.85-34 44.36-34.2a12.31 12.31 0 0 1 10.21 5.15 12.68 12.68 0 0 1 1.73 11.54c-11.09 32.82-36 33.54-44.38 32.78l-5.91 21a3 3 0 0 1-2.21 2.11 3.21 3.21 0 0 1-.68-.01Zm-20.84-30.77 19.43 21.71 5.15-18.22a3 3 0 0 1 3.56-2.11c1.15.26 28.58 5.95 40.2-28.45a6.56 6.56 0 0 0-.93-6 6.28 6.28 0 0 0-5.29-2.68c-15.83.19-35.42 5.79-38.85 31.38a3 3 0 0 1-2.71 2.59ZM749.39 357.32a3 3 0 0 0-2.19.69l-23.48 19.67a3 3 0 0 0-.37 4.23l14.24 17 4.49-4-12.21-14.58 18.89-15.82 11.75 14 4.49-4-13.57-16.2a3 3 0 0 0-2.04-.99ZM770.86 320.15l-23.48 19.67a3 3 0 0 0-.38 4.23l22.33 26.66c1.49-1.35 3-2.7 4.43-4.06l-20.23-24.15 18.89-15.82 18.78 22.42c1.37-1.48 2.72-3 4.06-4.48l-20.17-24.09a3 3 0 0 0-4.23-.38ZM635.94 450.89a3 3 0 0 0-2.19.69l-23.48 19.67a3 3 0 0 0-.37 4.23l17.7 21.13 4.49-4-15.67-18.7 18.89-15.82 15.2 18.16 4.49-4L638 452a3 3 0 0 0-2.06-1.11ZM590 464.53a3 3 0 0 0-4.23-.38l-23.48 19.67 5.42 3.29 19.61-16.43 29.65 35.39 4.49-4ZM735.54 122.45l-6.16 1.43c25.49 41.76 67.54 102.38 117.77 143q1.33-2.77 2.63-5.58c-48.37-39.5-89.1-97.86-114.24-138.85ZM757.27 117.38l-6.21 1.45c24.47 37.8 62.1 89 105.9 124.62a3.52 3.52 0 0 0 .45.3l2.42-5.72c-42.11-34.57-78.48-83.68-102.56-120.65ZM539.3 522.38 408.05 377.87l-6.83 1.41L536.66 528.4l2.64-6.02z"></path><path fill="#fff" d="m412.88 328.88 182.25 196.56 4.49-3.98-181.99-196.28-4.75 3.7zM462.12 329.48c10.49 0 22.8-4 35.58-16.5a3 3 0 1 0-4.19-4.28c-30.77 30.11-57.27 5.32-58.38 4.25l-.79-.8-4.75 3.71c1.83 1.68 15.46 13.62 32.53 13.62Z"></path></g></g><g><path fill="#fff" stroke="#2e186a" stroke-linecap="round" stroke-linejoin="round" stroke-width="6" d="M648.77 141s77.6-29.84 100.22-27.38 3.63 16.3.72 17.48l-118.9 42.2s-3.59-16.92 17.96-32.3Z"></path><path fill="#fff" stroke="#2e186a" stroke-linecap="round" stroke-linejoin="round" stroke-width="6" d="M701.84 52.6C692 32.67 664.52-2.47 609.53 8.93 549.93 21.29 457.66 47 464.21 127.61s67.54 58.76 67.54 58.76l-18 75.08c21.41 20.69 139.69 6.69 148.56-65.37l13.92-48.24s13.9-22.55 21.12-33.67 16.42-37.48 4.49-61.57Z" data-name="astronaut suit"></path><path fill="#2e186a" d="M634.05 149.94c22.09-18.23 80.08-40.3 49.14-99.58s-136.26-9-155.08 52.37 73.52 73.96 105.94 47.21Z"></path><path fill="#fe7624" d="M488.25 314.86a27.09 27.09 0 0 0 10.21-18.54c2.39-22.9-7.41-63.31-42.55-81.83-41.82-22.05-75.6-7.05-92.1 31.72s14.54 52.17 48.22 4.64c0 0 14.93-22.85 29.39-6.11s-21.92 56.51-3.24 72.39c15.6 13.27 41.67 4.26 50.07-2.27Z"></path><g data-name="cat"><path fill="#fe7624" d="M605.9 29.55c-34.25 11.88-67.92 41-77.79 73.18-18.83 61.34 61.22 68.88 105.94 47.21 8.15-6.73 21.2-14 32.86-23.44a60.18 60.18 0 0 0 6.82-17.89C687 58.42 622.61 32.06 605.9 29.55Z"></path><ellipse cx="588.79" cy="88.62" fill="#2e186a" data-name="eye II" rx="5.27" ry="8.33" transform="rotate(-21.84 588.738 88.614)"></ellipse><ellipse cx="627.72" cy="74.03" fill="#2e186a" rx="5.27" ry="8.33" transform="rotate(-21.84 627.653 74.026)"></ellipse><g data-name="nose and mouth"><path fill="#2e186a" d="m627 89.66-3.85 8.56a2.55 2.55 0 0 1-3.34 1.23l-8-3.55a2.3 2.3 0 0 1 .05-4.28l11.89-5a2.41 2.41 0 0 1 3.25 3.04Z"></path><path fill="none" stroke="#2e186a" stroke-linecap="round" stroke-linejoin="round" stroke-width="6" d="M621.13 96.1c2.13 5.07 11.65 15.5 11.57 5.33M621.38 96c2.13 5.08 5.42 21.38-4.5 11.49"></path></g><g data-name="white whiskers"><path fill="#fff" d="M683.19 50.36c-.33-.62-.67-1.21-1-1.81-12.33 3.75-27.19 10.82-36.35 24.07a3 3 0 1 0 4.94 3.4C659.13 63.9 673.41 57.43 685 54c-.57-1.18-1.16-2.4-1.81-3.64ZM691.42 74c-18.29 1.82-36 12.59-39.48 19.07a3 3 0 0 0 1.25 4.06 3.09 3.09 0 0 0 1.4.35 3 3 0 0 0 2.65-1.6C659.73 91.14 675.88 81.66 692 80a54 54 0 0 0-.58-6Z"></path></g><g><path fill="#2e186a" d="M571.73 106.25c-10-5-29.11-4.29-45.57 4.91a46.14 46.14 0 0 0-.55 7.36c15.25-10.09 34.3-11.51 43.42-6.92a3 3 0 1 0 2.7-5.35ZM574 115.54c-14.34-1-32.85 3.35-45.55 17.49a36.52 36.52 0 0 0 3 5.71c14.55-18 37.4-17.53 42.13-17.21a3 3 0 0 0 .41-6Z"></path></g></g><path fill="none" stroke="#2e186a" stroke-linecap="round" stroke-linejoin="round" stroke-width="6" d="M630.59 149.87c25.68-12.69 83.54-40.23 52.6-99.51s-136.26-9-155.08 52.37 59.32 68.49 102.48 47.14Z"></path><path fill="#fff" stroke="#2e186a" stroke-linecap="round" stroke-linejoin="round" stroke-width="6" d="M593.7 189.49c.62-.52 1.25-1 1.9-1.54a25.86 25.86 0 0 1 10.18-4.75c23.55-5.4 121.29-27.94 133.54-32.75 13.94-5.47 2.89 29.54-18.56 37.67-12.43 4.72-60 27.47-97.88 45.76-28.2 13.64-53.12-24.19-29.18-44.39Z" data-name="arm II"></path><g><path fill="#fe7624" d="M524.23 60.74a95.6 95.6 0 0 1 42.62-30.81c-40.13-8-69-10.39-70.86 7.44 2.14 7.03 20.49 18.7 28.24 23.37Z"></path><path fill="#2e186a" d="M531.5 52.53c1.66-1.67 3.33-3.25 5-4.72C515.78 42 511.32 30.57 511.09 30a3 3 0 0 0-5.66 2c.23.59 4.91 13.43 26.07 20.53Z"></path></g><g data-name="ear II"><path fill="#fe7624" d="M501.77 108.9c4.66-19.4 12.06-34.25 20.51-45.63-43.25.63-79 .4-74.83 26.58 8 20.5 52.95 21.35 52.95 21.35Z"></path><path fill="#2e186a" d="M505.46 96.07a58.78 58.78 0 0 1-50.86-13.74 3 3 0 1 0-4.22 4.26 64.82 64.82 0 0 0 43.21 16.69 65.56 65.56 0 0 0 9.86-.76q.96-3.31 2.01-6.45Z"></path></g></g></g></g></g></svg>